<?xml version="1.0" standalone="no"?>
<!DOCTYPE svg PUBLIC "-//W3C//DTD SVG 20010904//EN"
 "http://www.w3.org/TR/2001/REC-SVG-20010904/DTD/svg10.dtd">
<svg version="1.0" xmlns="http://www.w3.org/2000/svg"
 width="700.000000pt" height="700.000000pt" viewBox="0 0 700.000000 700.000000"
 preserveAspectRatio="xMidYMid meet">
<metadata>
Created by potrace 1.14, written by Peter Selinger 2001-2017
</metadata>
<g transform="translate(0.000000,700.000000) scale(0.100000,-0.100000)"
fill="#000000" stroke="none">
<path d="M4390 6573 c-107 -152 -233 -331 -281 -398 -86 -122 -297 -420 -365
-517 -21 -29 -114 -161 -207 -293 -94 -132 -224 -316 -290 -410 -66 -93 -138
-195 -160 -225 -21 -30 -104 -147 -183 -260 -277 -393 -460 -651 -596 -843
l-136 -192 414 -3 415 -2 -5 -33 c-3 -17 -29 -126 -57 -242 -28 -115 -52 -217
-54 -225 -2 -8 -13 -53 -25 -100 -12 -47 -24 -96 -26 -110 -3 -14 -25 -106
-50 -205 -24 -99 -47 -191 -50 -205 -3 -14 -14 -63 -25 -110 -12 -47 -22 -92
-24 -100 -2 -8 -17 -71 -34 -140 -18 -69 -33 -134 -35 -145 -3 -11 -25 -103
-49 -205 -25 -102 -55 -225 -67 -275 -39 -163 -110 -460 -117 -485 -3 -14 -7
-29 -9 -35 -1 -5 -13 -57 -27 -115 -69 -282 -89 -367 -93 -385 -2 -11 -12 -53
-22 -92 -10 -40 -17 -73 -16 -73 3 0 88 109 538 690 104 135 222 286 260 336
39 50 82 105 95 122 13 17 89 116 170 220 191 247 158 204 427 552 130 168
248 321 263 340 15 19 116 150 225 290 108 140 202 262 209 270 7 8 50 64 97
125 46 60 90 117 96 125 7 8 46 58 87 110 l75 95 -497 5 -496 5 2 25 c1 14 29
133 61 265 70 282 196 799 207 846 2 11 7 29 10 39 3 10 7 27 10 37 11 58 98
409 105 429 5 13 8 24 5 24 -2 0 2 21 10 48 8 26 16 58 19 72 3 14 7 35 10 48
4 12 8 30 10 40 2 9 29 118 60 242 30 124 80 329 111 455 30 127 58 241 62
255 8 32 7 26 22 90 7 30 30 125 52 211 21 86 40 167 43 180 2 13 7 31 10 39
6 16 16 70 13 70 -1 0 -90 -125 -197 -277z"/>
</g>
</svg>
